<?xml version="1.0" encoding="UTF-8"?>
<svg id="Camada_2" xmlns="http://www.w3.org/2000/svg" version="1.1" viewBox="0 0 219.5 93.5">
  <!-- Generator: Adobe Illustrator 29.9.0, SVG Export Plug-In . SVG Version: 2.1.1 Build 14)  -->
  <defs>
    <style>
      .st0 {
        fill: none;
      }

      .st1 {
        fill: #7368e2;
      }

      .st2 {
        fill: #f2f0ef;
      }
    </style>
  </defs>
  <path class="st2" d="M49.9,64.5c.4-.3.8-.7,1.3-1.1h0c3-2.7,5.3-6,7-9.7,1.5-3.5,2.4-7.3,2.4-11.3,0-15.7-12.7-28.4-28.4-28.4S3.7,26.6,3.7,42.3h0c0,3.6.6,6.9,1.8,10q.8,2.1,0,0c4,10.8,14.4,18.4,26.6,18.4s11.4-1.8,15.9-4.9c-.7,8-7.3,14.3-15.4,14.5v12.7c15.6-.2,28.2-12.9,28.2-28.5h-10.9ZM47.9,41.8c0,4.4-1.7,8.4-4.6,11.3h0c-2.8,2.8-6.8,4.5-11.1,4.5s-8.3-1.8-11.1-4.6-4.7-6.8-4.7-11.2v-1.3c.7-8.1,7.5-14.5,15.7-14.5s15.1,6.4,15.8,14.5c0,0,0,1.3,0,1.3Z"/>
  <path class="st2" d="M78.8,41.5v.8-.8Z"/>
  <path class="st2" d="M78.8,41.5v.8-.8Z"/>
  <rect class="st2" x="128.3" y="13.3" width="12.7" height="56.9"/>
  <path class="st2" d="M123.1,13.3v56.9h-12.7v-4.7c-8.9,6.3-22.7,6.3-31.6,0-7.7-5.1-12.7-13.8-12.7-23.7V13.1h12.7v29.2c.2,8.5,7.2,15.4,15.8,15.4s15.8-7.1,15.8-15.8V13.3s12.7,0,12.7,0Z"/>
  <path class="st2" d="M78.8,41.5v.8-.8Z"/>
  <path class="st2" d="M190.4,13.3v4.4c-4.5-3-10-4.8-15.8-4.8-15.7,0-28.5,12.8-28.5,28.5s12.8,28.3,28.5,28.5,16-4.8,16.1-5l5.3,5.3h7.1V13.3h-12.7ZM174.6,57.2c-8.7,0-15.8-7.1-15.8-15.8s7.1-15.8,15.8-15.8,15.8,7.1,15.8,15.8-7.1,15.8-15.8,15.8Z"/>
  <line class="st0" x1="32.5" y1="57.7" x2="32.5" y2="57.6"/>
  <circle class="st1" cx="209.5" cy="6.8" r="6.3"/>
</svg>